# xmcd
#
# Track frame offsets:
#	150
#	12472
#	23730
#	34105
#	44275
#	53839
#	68407
#	87045
#	98115
#	110410
#	121675
#	132082
#	142282
#	151825
#	166337
#	184827
#
# Disc length: 2612 seconds
#
# Revision: 1
# Processed by: cddbd v1.5.1PL2 Copyright (c) Steve Scherf et al.
# Submitted via: audiograbber 1.83.01
#
DISCID=c80a3210
DTITLE=Nelson, Ricky - Sc2200
DYEAR=1900
DGENRE=Country
TTITLE0=Poor Little Fool
TTITLE1=Travelin' Man
TTITLE2=Be Bop Baby
TTITLE3=It's Late
TTITLE4=Stood Up
TTITLE5=It's Up To You
TTITLE6=Garden Party
TTITLE7=Hello Mary Lou
TTITLE8=Poor Little Fool
TTITLE9=Travelin' Man
TTITLE10=Be Bop Baby
TTITLE11=It's Late
TTITLE12=Stood Up
TTITLE13=It's Up To You
TTITLE14=Garden Party
TTITLE15=Hello Mary Lou
EXTD=
EXTT0=
EXTT1=
EXTT2=
EXTT3=
EXTT4=
EXTT5=
EXTT6=
EXTT7=
EXTT8=
EXTT9=
EXTT10=
EXTT11=
EXTT12=
EXTT13=
EXTT14=
EXTT15=
PLAYORDER=
